<svg width="16" height="16" viewBox="0 0 16 16" fill="none" xmlns="http://www.w3.org/2000/svg">
<g id="User Interface / Liked">
<path id="Shape" d="M7.99992 1.33594C4.31802 1.33594 1.33325 4.32071 1.33325 8.0026C1.33325 11.6845 4.31802 14.6693 7.99992 14.6693C11.6818 14.6693 14.6666 11.6845 14.6666 8.0026C14.6666 4.32071 11.6818 1.33594 7.99992 1.33594Z" fill="#94C5FF"/>
<path id="Shape_2" d="M11.2928 7.17199C11.3194 7.29493 11.3334 7.42222 11.3334 7.55259C11.3334 9.86639 9.1096 10.9539 8.29474 11.2747C8.10493 11.3494 7.89524 11.3494 7.70542 11.2747C7.60356 11.2346 7.47969 11.1825 7.3409 11.1175C6.36936 10.6628 4.66675 9.57718 4.66675 7.55262C4.66675 6.50961 5.56218 5.66406 6.66675 5.66406C7.17898 5.66406 7.64624 5.8459 8.00008 6.14494C8.35392 5.8459 8.82118 5.66406 9.33341 5.66406C9.76504 5.66406 10.1647 5.79317 10.4915 6.01272C10.8965 6.28479 11.1896 6.69574 11.2928 7.17199Z" fill="#0B435B"/>
</g>
</svg>
